<?xml version="1.0" encoding="utf-8"?>
<!-- Generator: Adobe Illustrator 16.0.0, SVG Export Plug-In . SVG Version: 6.00 Build 0)  -->
<!DOCTYPE svg PUBLIC "-//W3C//DTD SVG 1.1//EN" "http://www.w3.org/Graphics/SVG/1.1/DTD/svg11.dtd">
<svg version="1.1" id="Layer_1" xmlns="http://www.w3.org/2000/svg" xmlns:xlink="http://www.w3.org/1999/xlink" x="0px" y="0px"
	 width="152.32px" height="32px" viewBox="0 2 152.32 32" enable-background="new 0 2 152.32 32" xml:space="preserve">
<g>
	<defs>
		<rect id="SVGID_1_" y="2" width="152.32" height="32"/>
	</defs>
	<clipPath id="SVGID_2_">
		<use xlink:href="#SVGID_1_"  overflow="visible"/>
	</clipPath>
	<g clip-path="url(#SVGID_2_)">
		<path fill="#DC2F34" d="M28.676,4.612c1.103,1.361,1.409,3.387,0.606,4.976c-0.421,0.821-1.257,1.557-2.13,1.752
			c-1.104,0.157-2.322,0.157-3.164-0.625c-0.989-0.932-1.524-2.254-1.065-3.654c0.039-1.674,4.038-2.918,1.295-4.475
			c-1.41-0.469-2.704,0.313-3.654,1.4c-1.984,3.426-3.24,7.484-4.573,11.184l12.756,0.02v17.677l3.999,0.02v0.619l-13.33-0.013
			l-0.025-0.631h3.872l-0.013-16.824h-7.609L9.593,32.86l3.948,0.02l0.013,0.625L0,33.499l0.025-0.632c0,0,3.323,0.02,3.706,0.02
			c0.243,0,0.421-0.625,0.421-0.625l5.964-16.218H0.153L0.14,15.17h10.167c0,0,4.394-12.74,11.098-13.085
			C24.147,1.772,26.966,2.28,28.676,4.612z"/>
		<path fill="#575756" d="M107.629,28.711c0,1.121-0.306,2.071-0.918,2.859c-0.613,0.788-1.384,1.179-2.309,1.179
			c-1.225,0-2.016-0.411-2.373-1.238c-0.351-0.827-0.529-1.935-0.529-3.322c0-1.25,0.178-2.169,0.529-2.742
			c0.357-0.573,1.142-0.925,2.373-1.062l3.233-0.319v4.644H107.629z M112.98,20.647c0-2.182-0.803-3.712-2.404-4.579
			c-1.601-0.873-3.655-1.303-6.155-1.303c-1.984,0-3.648,0.437-5.007,1.309c-1.358,0.873-2.035,1.896-2.035,3.055
			c0,0.775,0.224,1.42,0.67,1.935s1.104,0.769,1.977,0.769c0.759,0,1.359-0.228,1.812-0.684c0.446-0.456,0.67-1.056,0.67-1.805
			c0-0.775-0.345-1.361-1.027-1.765c-0.689-0.404-1.027-0.671-1.027-0.808c0-0.443,0.389-0.762,1.161-0.958
			c0.778-0.196,1.626-0.293,2.551-0.293c1.441,0,2.385,0.319,2.819,0.951c0.434,0.638,0.65,1.654,0.65,3.068v3.478l-3.992,0.332
			c-2.15,0-3.974,0.443-5.485,1.329c-1.512,0.886-2.258,2.306-2.258,4.267c0,1.687,0.612,2.95,1.85,3.791
			c1.231,0.84,2.717,1.264,4.445,1.264c0.976,0,2.009-0.215,3.106-0.638c1.097-0.423,1.875-1.082,2.334-1.96
			c0.734,1.732,2.086,2.592,4.063,2.592c1.327,0,2.386-0.358,3.17-1.075c0.785-0.717,1.18-1.654,1.18-2.82l-0.746-0.176
			c0,0.605-0.128,1.153-0.383,1.622c-0.255,0.469-0.593,0.71-1.02,0.71c-0.613,0-0.919-0.69-0.919-2.071V20.647z"/>
		<path fill="#575756" d="M52.325,32.867V4.273h-4.509c-0.415,0.007-0.854,0.013-1.346,0.013h-3.125v0.762h3.374l-0.089,13.02
			c-0.491-1.088-1.142-1.915-1.952-2.469c-0.81-0.56-1.843-0.84-3.094-0.84c-2.634,0-4.732,0.97-6.308,2.905s-2.36,4.286-2.36,7.047
			c0,2.742,0.887,4.97,2.666,6.696S39.333,34,41.508,34c1.275,0,2.328-0.267,3.157-0.794c0.829-0.528,1.511-1.277,2.06-2.254v2.56
			h4.535c0.338-0.007,0.695-0.007,1.071-0.007h2.794v-0.638C55.119,32.867,52.325,33.095,52.325,32.867z M46.719,28.001
			c0,1.335-0.389,2.508-1.161,3.511c-0.778,1.003-1.805,1.505-3.081,1.505c-1.225,0-2.111-0.501-2.653-1.492
			c-0.542-0.997-0.816-2.547-0.816-4.65v-5.979c0-1.576,0.249-2.833,0.753-3.758c0.504-0.925,1.352-1.394,2.551-1.394
			c1.307,0,2.366,0.515,3.183,1.55c0.816,1.036,1.224,2.188,1.224,3.458V28.001z"/>
		<path fill="#575756" d="M62.932,11.138c0.918,0,1.697-0.326,2.328-0.97c0.638-0.651,0.957-1.446,0.957-2.384
			S65.898,6.051,65.26,5.4c-0.638-0.651-1.416-0.97-2.328-0.97c-0.918,0-1.697,0.325-2.334,0.97c-0.638,0.651-0.95,1.446-0.95,2.384
			s0.319,1.733,0.95,2.384C61.235,10.813,62.014,11.138,62.932,11.138z"/>
		<path fill="#575756" d="M65.738,32.867h2.806v0.638H57.326v-0.638h2.806V15.893h-2.806v-0.697h2.883
			c0.127,0,0.242-0.006,0.37-0.006h5.16V32.867z"/>
		<path fill="#575756" d="M91.104,32.88V21.195c0-2.214-0.465-3.836-1.403-4.872c-0.931-1.036-2.379-1.557-4.324-1.557
			c-1.384,0-2.672,0.339-3.878,1.022c-1.205,0.678-2.104,1.603-2.704,2.775v-3.374h-4.465c-0.338,0.006-0.695,0.013-1.059,0.013
			h-2.889v0.697h2.806v16.98h-2.806v0.638h10.824V32.88h-2.411V21.338c0-1.12,0.446-2.247,1.339-3.387
			c0.893-1.133,1.881-1.707,2.966-1.707c0.733,0,1.314,0.234,1.748,0.704c0.434,0.469,0.65,1.368,0.65,2.696v13.229h-2.321v0.639
			H93.91v-0.639h-2.806V32.88z"/>
		<path fill="#575756" d="M149.52,32.88V21.195c0-2.182-0.446-3.797-1.346-4.853c-0.893-1.048-2.207-1.576-3.941-1.576
			c-1.378,0-2.647,0.332-3.795,0.997c-1.148,0.664-2.048,1.622-2.705,2.866c-0.382-1.302-1.02-2.273-1.932-2.905
			c-0.906-0.638-1.996-0.958-3.272-0.958c-1.384,0-2.679,0.339-3.884,1.022c-1.206,0.678-2.105,1.603-2.705,2.775v-3.374h-4.471
			c-0.338,0.006-0.695,0.013-1.058,0.013h-2.883v0.697h2.806v16.98h-2.806v0.638h10.517V32.88h-2.105V21.338
			c0-1.068,0.421-2.182,1.257-3.348c0.842-1.166,1.843-1.746,3.01-1.746c0.759,0,1.27,0.287,1.525,0.853
			c0.255,0.567,0.382,1.518,0.382,2.84v12.936h-2.277v0.639h10.122v-0.639h-2.232V21.338c0-1.068,0.421-2.182,1.257-3.348
			c0.841-1.166,1.843-1.746,3.01-1.746c0.759,0,1.269,0.287,1.524,0.853c0.255,0.567,0.383,1.518,0.383,2.84v12.936h-2.149v0.639
			h10.555v-0.639h-2.787V32.88z"/>
	</g>
</g>
<path d="M484.266,19.293c-0.105,0.902-0.439,1.6-1.002,2.092c-0.559,0.488-1.303,0.732-2.232,0.732
	c-1.008,0-1.816-0.361-2.426-1.084c-0.605-0.723-0.908-1.689-0.908-2.9v-0.82c0-0.793,0.141-1.49,0.422-2.092
	c0.285-0.602,0.688-1.063,1.207-1.383c0.52-0.324,1.121-0.486,1.805-0.486c0.906,0,1.633,0.254,2.18,0.762
	c0.547,0.504,0.865,1.203,0.955,2.098h-1.131c-0.098-0.68-0.311-1.172-0.639-1.477c-0.324-0.305-0.779-0.457-1.365-0.457
	c-0.719,0-1.283,0.266-1.693,0.797c-0.406,0.531-0.609,1.287-0.609,2.268v0.826c0,0.926,0.193,1.662,0.58,2.209
	s0.928,0.82,1.623,0.82c0.625,0,1.104-0.141,1.436-0.422c0.336-0.285,0.559-0.779,0.668-1.482H484.266z M492.363,22h-1.131v-3.943
	h-4.301V22h-1.125v-8.531h1.125v3.668h4.301v-3.668h1.131V22z M495.568,22h-1.125v-8.531h1.125V22z M503.121,18.197
	c-0.965-0.277-1.668-0.617-2.109-1.02c-0.438-0.406-0.656-0.906-0.656-1.5c0-0.672,0.268-1.227,0.803-1.664
	c0.539-0.441,1.238-0.662,2.098-0.662c0.586,0,1.107,0.113,1.564,0.34c0.461,0.227,0.816,0.539,1.066,0.938
	c0.254,0.398,0.381,0.834,0.381,1.307h-1.131c0-0.516-0.164-0.92-0.492-1.213c-0.328-0.297-0.791-0.445-1.389-0.445
	c-0.555,0-0.988,0.123-1.301,0.369c-0.309,0.242-0.463,0.58-0.463,1.014c0,0.348,0.146,0.643,0.439,0.885
	c0.297,0.238,0.799,0.457,1.506,0.656c0.711,0.199,1.266,0.42,1.664,0.662c0.402,0.238,0.699,0.518,0.891,0.838
	c0.195,0.32,0.293,0.697,0.293,1.131c0,0.691-0.27,1.246-0.809,1.664c-0.539,0.414-1.26,0.621-2.162,0.621
	c-0.586,0-1.133-0.111-1.641-0.334c-0.508-0.227-0.9-0.535-1.178-0.926c-0.273-0.391-0.41-0.834-0.41-1.33h1.131
	c0,0.516,0.189,0.924,0.568,1.225c0.383,0.297,0.893,0.445,1.529,0.445c0.594,0,1.049-0.121,1.365-0.363s0.475-0.572,0.475-0.99
	s-0.146-0.74-0.439-0.967C504.422,18.646,503.891,18.42,503.121,18.197z M508.939,22h-1.125v-8.531h1.125V22z M515.818,19.773
	h-3.574L511.441,22h-1.16l3.258-8.531h0.984L517.787,22h-1.154L515.818,19.773z M512.584,18.848h2.9l-1.453-3.99L512.584,18.848z
	 M520.389,13.469l2.789,6.961l2.789-6.961h1.459V22h-1.125v-3.322l0.105-3.586L523.605,22h-0.861l-2.795-6.891l0.111,3.568V22
	h-1.125v-8.531H520.389z M535.975,18.01c0,0.836-0.141,1.566-0.422,2.191c-0.281,0.621-0.68,1.096-1.195,1.424
	s-1.117,0.492-1.805,0.492c-0.672,0-1.268-0.164-1.787-0.492c-0.52-0.332-0.924-0.803-1.213-1.412
	c-0.285-0.613-0.432-1.322-0.439-2.127v-0.615c0-0.82,0.143-1.545,0.428-2.174s0.688-1.109,1.207-1.441
	c0.523-0.336,1.121-0.504,1.793-0.504c0.684,0,1.285,0.166,1.805,0.498c0.523,0.328,0.926,0.807,1.207,1.436
	c0.281,0.625,0.422,1.354,0.422,2.186V18.01z M534.855,17.459c0-1.012-0.203-1.787-0.609-2.326
	c-0.406-0.543-0.975-0.814-1.705-0.814c-0.711,0-1.271,0.271-1.682,0.814c-0.406,0.539-0.615,1.289-0.627,2.25v0.627
	c0,0.98,0.205,1.752,0.615,2.314c0.414,0.559,0.982,0.838,1.705,0.838c0.727,0,1.289-0.264,1.688-0.791
	c0.398-0.531,0.604-1.291,0.615-2.279V17.459z"/>
<path d="M576.547,22h-1.131l-4.295-6.574V22h-1.131v-8.531h1.131l4.307,6.604v-6.604h1.119V22z M583.367,18.057h-3.697v3.023h4.295
	V22h-5.42v-8.531h5.361v0.926h-4.236v2.742h3.697V18.057z M587.205,19.311l0.164,1.125l0.24-1.014l1.688-5.953h0.949l1.646,5.953
	l0.234,1.031l0.182-1.148l1.324-5.836h1.131L592.695,22h-1.025l-1.758-6.217l-0.135-0.65l-0.135,0.65L587.82,22h-1.025l-2.063-8.531
	h1.125L587.205,19.311z M598.531,18.197c-0.965-0.277-1.668-0.617-2.109-1.02c-0.438-0.406-0.656-0.906-0.656-1.5
	c0-0.672,0.268-1.227,0.803-1.664c0.539-0.441,1.238-0.662,2.098-0.662c0.586,0,1.107,0.113,1.564,0.34
	c0.461,0.227,0.816,0.539,1.066,0.938c0.254,0.398,0.381,0.834,0.381,1.307h-1.131c0-0.516-0.164-0.92-0.492-1.213
	c-0.328-0.297-0.791-0.445-1.389-0.445c-0.555,0-0.988,0.123-1.301,0.369c-0.309,0.242-0.463,0.58-0.463,1.014
	c0,0.348,0.146,0.643,0.439,0.885c0.297,0.238,0.799,0.457,1.506,0.656c0.711,0.199,1.266,0.42,1.664,0.662
	c0.402,0.238,0.699,0.518,0.891,0.838c0.195,0.32,0.293,0.697,0.293,1.131c0,0.691-0.27,1.246-0.809,1.664
	c-0.539,0.414-1.26,0.621-2.162,0.621c-0.586,0-1.133-0.111-1.641-0.334c-0.508-0.227-0.9-0.535-1.178-0.926
	c-0.273-0.391-0.41-0.834-0.41-1.33h1.131c0,0.516,0.189,0.924,0.568,1.225c0.383,0.297,0.893,0.445,1.529,0.445
	c0.594,0,1.049-0.121,1.365-0.363s0.475-0.572,0.475-0.99s-0.146-0.74-0.439-0.967C599.832,18.646,599.301,18.42,598.531,18.197z"/>
<path d="M638.504,18.197c-0.965-0.277-1.668-0.617-2.109-1.02c-0.438-0.406-0.656-0.906-0.656-1.5c0-0.672,0.268-1.227,0.803-1.664
	c0.539-0.441,1.238-0.662,2.098-0.662c0.586,0,1.107,0.113,1.564,0.34c0.461,0.227,0.816,0.539,1.066,0.938
	c0.254,0.398,0.381,0.834,0.381,1.307h-1.131c0-0.516-0.164-0.92-0.492-1.213c-0.328-0.297-0.791-0.445-1.389-0.445
	c-0.555,0-0.988,0.123-1.301,0.369c-0.309,0.242-0.463,0.58-0.463,1.014c0,0.348,0.146,0.643,0.439,0.885
	c0.297,0.238,0.799,0.457,1.506,0.656c0.711,0.199,1.266,0.42,1.664,0.662c0.402,0.238,0.699,0.518,0.891,0.838
	c0.195,0.32,0.293,0.697,0.293,1.131c0,0.691-0.27,1.246-0.809,1.664c-0.539,0.414-1.26,0.621-2.162,0.621
	c-0.586,0-1.133-0.111-1.641-0.334c-0.508-0.227-0.9-0.535-1.178-0.926c-0.273-0.391-0.41-0.834-0.41-1.33h1.131
	c0,0.516,0.189,0.924,0.568,1.225c0.383,0.297,0.893,0.445,1.529,0.445c0.594,0,1.049-0.121,1.365-0.363s0.475-0.572,0.475-0.99
	s-0.146-0.74-0.439-0.967C639.805,18.646,639.273,18.42,638.504,18.197z M647.938,18.057h-3.697v3.023h4.295V22h-5.42v-8.531h5.361
	v0.926h-4.236v2.742h3.697V18.057z M649.936,22v-8.531h2.408c0.742,0,1.398,0.164,1.969,0.492s1.01,0.795,1.318,1.4
	c0.313,0.605,0.471,1.301,0.475,2.086v0.545c0,0.805-0.156,1.51-0.469,2.115c-0.309,0.605-0.752,1.07-1.33,1.395
	c-0.574,0.324-1.244,0.49-2.01,0.498H649.936z M651.061,14.395v6.686h1.184c0.867,0,1.541-0.27,2.021-0.809
	c0.484-0.539,0.727-1.307,0.727-2.303v-0.498c0-0.969-0.229-1.721-0.686-2.256c-0.453-0.539-1.098-0.813-1.934-0.82H651.061z
	 M659.018,22h-1.125v-8.531h1.125V22z M668.879,18.057h-3.697v3.023h4.295V22h-5.42v-8.531h5.361v0.926h-4.236v2.742h3.697V18.057z
	 M680.129,19.293c-0.105,0.902-0.439,1.6-1.002,2.092c-0.559,0.488-1.303,0.732-2.232,0.732c-1.008,0-1.816-0.361-2.426-1.084
	c-0.605-0.723-0.908-1.689-0.908-2.9v-0.82c0-0.793,0.141-1.49,0.422-2.092c0.285-0.602,0.688-1.063,1.207-1.383
	c0.52-0.324,1.121-0.486,1.805-0.486c0.906,0,1.633,0.254,2.18,0.762c0.547,0.504,0.865,1.203,0.955,2.098h-1.131
	c-0.098-0.68-0.311-1.172-0.639-1.477c-0.324-0.305-0.779-0.457-1.365-0.457c-0.719,0-1.283,0.266-1.693,0.797
	c-0.406,0.531-0.609,1.287-0.609,2.268v0.826c0,0.926,0.193,1.662,0.58,2.209s0.928,0.82,1.623,0.82
	c0.625,0,1.104-0.141,1.436-0.422c0.336-0.285,0.559-0.779,0.668-1.482H680.129z M688.232,18.01c0,0.836-0.141,1.566-0.422,2.191
	c-0.281,0.621-0.68,1.096-1.195,1.424s-1.117,0.492-1.805,0.492c-0.672,0-1.268-0.164-1.787-0.492
	c-0.52-0.332-0.924-0.803-1.213-1.412c-0.285-0.613-0.432-1.322-0.439-2.127v-0.615c0-0.82,0.143-1.545,0.428-2.174
	s0.688-1.109,1.207-1.441c0.523-0.336,1.121-0.504,1.793-0.504c0.684,0,1.285,0.166,1.805,0.498
	c0.523,0.328,0.926,0.807,1.207,1.436c0.281,0.625,0.422,1.354,0.422,2.186V18.01z M687.113,17.459c0-1.012-0.203-1.787-0.609-2.326
	c-0.406-0.543-0.975-0.814-1.705-0.814c-0.711,0-1.271,0.271-1.682,0.814c-0.406,0.539-0.615,1.289-0.627,2.25v0.627
	c0,0.98,0.205,1.752,0.615,2.314c0.414,0.559,0.982,0.838,1.705,0.838c0.727,0,1.289-0.264,1.688-0.791
	c0.398-0.531,0.604-1.291,0.615-2.279V17.459z M696.477,22h-1.131l-4.295-6.574V22h-1.131v-8.531h1.131l4.307,6.604v-6.604h1.119V22
	z M704.193,14.395h-2.742V22h-1.119v-7.605h-2.736v-0.926h6.598V14.395z M709.701,19.773h-3.574L705.324,22h-1.16l3.258-8.531h0.984
	L711.67,22h-1.154L709.701,19.773z M706.467,18.848h2.9l-1.453-3.99L706.467,18.848z M717.951,14.395h-2.742V22h-1.119v-7.605
	h-2.736v-0.926h6.598V14.395z M725.205,14.395h-2.742V22h-1.119v-7.605h-2.736v-0.926h6.598V14.395z M727.678,22h-1.125v-8.531
	h1.125V22z"/>
<path d="M763.443,13.469l2.789,6.961l2.789-6.961h1.459V22h-1.125v-3.322l0.105-3.586L766.66,22h-0.861l-2.795-6.891l0.111,3.568V22
	h-1.125v-8.531H763.443z M774.904,17.752l2.227-4.283h1.277l-2.941,5.35V22h-1.125v-3.182l-2.941-5.35h1.289L774.904,17.752z
	 M787.191,18.232h-3.58V22h-1.125v-8.531h5.285v0.926h-4.16v2.918h3.58V18.232z M790.326,22h-1.125v-8.531h1.125V22z M792.389,22
	v-8.531h2.408c0.742,0,1.398,0.164,1.969,0.492s1.01,0.795,1.318,1.4c0.313,0.605,0.471,1.301,0.475,2.086v0.545
	c0,0.805-0.156,1.51-0.469,2.115c-0.309,0.605-0.752,1.07-1.33,1.395c-0.574,0.324-1.244,0.49-2.01,0.498H792.389z M793.514,14.395
	v6.686h1.184c0.867,0,1.541-0.27,2.021-0.809c0.484-0.539,0.727-1.307,0.727-2.303v-0.498c0-0.969-0.229-1.721-0.686-2.256
	c-0.453-0.539-1.098-0.813-1.934-0.82H793.514z M801.471,22h-1.125v-8.531h1.125V22z M810.09,22h-1.131l-4.295-6.574V22h-1.131
	v-8.531h1.131l4.307,6.604v-6.604h1.119V22z M816.904,19.773h-3.574L812.527,22h-1.16l3.258-8.531h0.984L818.873,22h-1.154
	L816.904,19.773z M813.67,18.848h2.9l-1.453-3.99L813.67,18.848z M821.475,13.469l2.789,6.961l2.789-6.961h1.459V22h-1.125v-3.322
	l0.105-3.586L824.691,22h-0.861l-2.795-6.891l0.111,3.568V22h-1.125v-8.531H821.475z"/>
<rect x="862" y="10" fill="#C4C4C4" width="1" height="16"/>
<path d="M897.197,22h-1.125v-8.531h1.125V22z M904.979,14.395h-2.742V22h-1.119v-7.605h-2.736v-0.926h6.598V14.395z"/>
<path d="M921,16l5,5l5-5H921z"/>
<rect x="971" y="1" fill="#DC2F34" width="180" height="34"/>
<path fill="#FFFFFF" d="M990.669,19.165h-1.928V23h-1.729v-9.953h3.5c1.148,0,2.035,0.257,2.659,0.772s0.937,1.26,0.937,2.235
	c0,0.666-0.161,1.224-0.485,1.675c-0.319,0.447-0.767,0.791-1.34,1.032l2.235,4.149V23h-1.853L990.669,19.165z M988.741,17.777
	h1.778c0.582,0,1.038-0.146,1.366-0.438c0.328-0.296,0.492-0.7,0.492-1.21c0-0.533-0.153-0.946-0.458-1.237
	c-0.301-0.292-0.752-0.442-1.354-0.451h-1.825V17.777z M997.573,23h-1.722v-9.953h1.722V23z M1007.29,19.76
	c-0.101,1.062-0.49,1.891-1.17,2.488c-0.69,0.592-1.59,0.889-2.73,0.889c-0.79,0-1.489-0.187-2.1-0.561
	c-0.601-0.378-1.06-0.914-1.394-1.606c-0.327-0.693-0.498-1.497-0.512-2.413v-0.93c0-0.939,0.166-1.766,0.499-2.481
	c0.336-0.715,0.806-1.267,1.427-1.654c0.629-0.387,1.35-0.581,2.159-0.581c1.101,0,1.99,0.298,2.65,0.896
	c0.67,0.597,1.06,1.44,1.17,2.529h-1.72c-0.08-0.715-0.29-1.23-0.631-1.545c-0.329-0.319-0.819-0.479-1.47-0.479
	c-0.75,0-1.33,0.276-1.729,0.827c-0.4,0.547-0.61,1.351-0.62,2.413v0.882c0,1.076,0.19,1.896,0.58,2.461
	c0.38,0.565,0.95,0.848,1.689,0.848c0.681,0,1.19-0.153,1.53-0.458s0.561-0.813,0.65-1.524H1007.29z M1016.75,23h-1.72v-4.423h-4.45
	V23h-1.73v-9.953h1.73v4.143h4.45v-4.143h1.72V23z M1020.62,23h-1.72v-9.953h1.72V23z M1028.57,18.557h-4.09v3.063h4.779V23h-6.51
	v-9.953h6.46v1.395h-4.729v2.748h4.09V18.557z M1030.67,23v-9.953h2.94c0.88,0,1.649,0.196,2.329,0.588
	c0.69,0.392,1.221,0.948,1.591,1.668s0.56,1.545,0.56,2.475v0.499c0,0.943-0.189,1.773-0.57,2.488
	c-0.369,0.715-0.909,1.267-1.6,1.654c-0.7,0.387-1.49,0.581-2.39,0.581H1030.67z M1032.4,14.441v7.178h1.119
	c0.91,0,1.61-0.283,2.091-0.848c0.489-0.57,0.729-1.385,0.739-2.447v-0.554c0-1.08-0.229-1.905-0.699-2.475
	c-0.471-0.57-1.15-0.854-2.04-0.854H1032.4z M1041.64,23h-1.72v-9.953h1.72V23z M1054.84,19.76c-0.1,1.062-0.49,1.891-1.17,2.488
	c-0.68,0.592-1.59,0.889-2.73,0.889c-0.789,0-1.489-0.187-2.1-0.561c-0.6-0.378-1.06-0.914-1.39-1.606s-0.5-1.497-0.511-2.413v-0.93
	c0-0.939,0.16-1.766,0.49-2.481c0.34-0.715,0.811-1.267,1.431-1.654c0.63-0.387,1.35-0.581,2.159-0.581
	c1.101,0,1.99,0.298,2.66,0.896s1.061,1.44,1.16,2.529h-1.72c-0.08-0.715-0.29-1.23-0.63-1.545c-0.33-0.319-0.82-0.479-1.471-0.479
	c-0.75,0-1.33,0.276-1.729,0.827c-0.4,0.547-0.61,1.351-0.62,2.413v0.882c0,1.076,0.19,1.896,0.58,2.461
	c0.38,0.565,0.95,0.848,1.689,0.848c0.681,0,1.19-0.153,1.53-0.458c0.341-0.305,0.561-0.813,0.65-1.524H1054.84z M1064.34,18.283
	c0,0.975-0.17,1.832-0.51,2.57c-0.33,0.734-0.82,1.299-1.45,1.695c-0.62,0.392-1.34,0.588-2.16,0.588c-0.8,0-1.52-0.196-2.159-0.588
	c-0.621-0.396-1.11-0.959-1.461-1.688c-0.34-0.729-0.51-1.57-0.52-2.522v-0.561c0-0.971,0.17-1.828,0.51-2.57
	c0.35-0.743,0.84-1.31,1.46-1.702c0.63-0.396,1.351-0.595,2.16-0.595s1.53,0.196,2.15,0.588c0.63,0.387,1.12,0.948,1.46,1.682
	c0.34,0.729,0.52,1.579,0.52,2.55V18.283z M1062.61,17.764c0-1.103-0.21-1.948-0.63-2.536c-0.41-0.588-1-0.882-1.771-0.882
	c-0.75,0-1.33,0.294-1.76,0.882c-0.42,0.583-0.63,1.411-0.64,2.481v0.574c0,1.094,0.209,1.939,0.64,2.536
	c0.43,0.597,1.02,0.896,1.77,0.896c0.771,0,1.36-0.292,1.771-0.875s0.62-1.436,0.62-2.557V17.764z M1073.96,23h-1.729l-4.44-7.062
	V23h-1.729v-9.953h1.729l4.45,7.089v-7.089h1.72V23z M1081.2,20.437c0-0.438-0.15-0.775-0.46-1.012
	c-0.311-0.237-0.86-0.476-1.66-0.718s-1.44-0.51-1.92-0.807c-0.9-0.57-1.36-1.313-1.36-2.229c0-0.802,0.33-1.463,0.98-1.982
	c0.659-0.52,1.51-0.779,2.55-0.779c0.689,0,1.31,0.127,1.85,0.383c0.551,0.255,0.971,0.62,1.28,1.094
	c0.31,0.469,0.47,0.991,0.47,1.565h-1.729c0-0.52-0.16-0.925-0.49-1.217c-0.32-0.296-0.79-0.444-1.39-0.444
	c-0.57,0-1.01,0.121-1.32,0.362s-0.47,0.579-0.47,1.012c0,0.365,0.17,0.67,0.51,0.916c0.34,0.242,0.89,0.479,1.67,0.711
	c0.771,0.228,1.39,0.49,1.86,0.786c0.47,0.292,0.819,0.629,1.04,1.012c0.21,0.378,0.319,0.823,0.319,1.333
	c0,0.83-0.319,1.49-0.949,1.982c-0.641,0.488-1.5,0.731-2.591,0.731c-0.72,0-1.38-0.132-1.989-0.396
	c-0.601-0.269-1.07-0.638-1.4-1.107c-0.34-0.469-0.5-1.016-0.5-1.641h1.73c0,0.565,0.18,1.002,0.56,1.313
	c0.37,0.31,0.91,0.465,1.6,0.465c0.601,0,1.061-0.121,1.36-0.362C1081.05,21.161,1081.2,20.837,1081.2,20.437z M1091.73,13.047
	v6.651c0,1.057-0.341,1.896-1.021,2.516c-0.67,0.615-1.57,0.923-2.7,0.923c-1.14,0-2.04-0.303-2.71-0.909
	c-0.67-0.611-1.01-1.456-1.01-2.536v-6.645h1.729v6.658c0,0.666,0.17,1.173,0.5,1.524c0.341,0.351,0.841,0.526,1.49,0.526
	c1.33,0,2-0.702,2-2.105v-6.604H1091.73z M1095.311,21.619h4.52V23h-6.25v-9.953h1.73V21.619z M1106.98,18.557h-4.091v3.063h4.78V23
	h-6.51v-9.953h6.46v1.395h-4.73v2.748h4.091V18.557z M1116.97,23h-1.729l-4.44-7.062V23h-1.729v-9.953h1.729l4.45,7.089v-7.089h1.72
	V23z M1120.64,21.619h5.32V23h-7.41v-1.121l5.15-7.438h-5.12v-1.395h7.21v1.094L1120.64,21.619z M1133.12,20.683h-3.86L1128.45,23
	h-1.79l3.76-9.953h1.55L1135.73,23h-1.801L1133.12,20.683z M1129.75,19.288h2.88l-1.44-4.129L1129.75,19.288z"/>
<rect x="971" y="1" fill="none" stroke="#DC2F34" stroke-width="2" width="180" height="34"/>
<path d="M198.606,81.76c-0.1,1.063-0.492,1.891-1.175,2.488c-0.684,0.592-1.593,0.889-2.728,0.889c-0.793,0-1.492-0.188-2.099-0.561
	c-0.601-0.379-1.066-0.914-1.394-1.606s-0.499-1.497-0.513-2.413v-0.93c0-0.939,0.167-1.766,0.499-2.481
	c0.333-0.716,0.809-1.267,1.429-1.654c0.624-0.388,1.344-0.581,2.16-0.581c1.098,0,1.983,0.299,2.653,0.896
	c0.669,0.597,1.059,1.44,1.168,2.529h-1.722c-0.082-0.716-0.292-1.23-0.629-1.545c-0.333-0.319-0.823-0.479-1.47-0.479
	c-0.752,0-1.331,0.276-1.736,0.827c-0.401,0.547-0.606,1.352-0.615,2.413v0.882c0,1.076,0.191,1.896,0.574,2.461
	c0.387,0.564,0.952,0.848,1.695,0.848c0.679,0,1.19-0.152,1.531-0.458c0.342-0.306,0.559-0.813,0.65-1.524H198.606z M208.102,80.283
	c0,0.975-0.169,1.832-0.506,2.57c-0.338,0.734-0.821,1.299-1.45,1.695c-0.624,0.393-1.344,0.588-2.16,0.588
	c-0.806,0-1.526-0.195-2.16-0.588c-0.629-0.396-1.116-0.959-1.463-1.688c-0.342-0.729-0.515-1.569-0.519-2.522v-0.561
	c0-0.971,0.171-1.828,0.512-2.57c0.347-0.742,0.832-1.311,1.456-1.702c0.629-0.396,1.349-0.595,2.161-0.595
	c0.811,0,1.529,0.195,2.153,0.588c0.629,0.387,1.114,0.947,1.456,1.682c0.342,0.729,0.515,1.579,0.52,2.55V80.283z M206.372,79.764
	c0-1.104-0.21-1.948-0.629-2.536c-0.415-0.588-1.005-0.882-1.77-0.882c-0.748,0-1.333,0.294-1.757,0.882
	c-0.419,0.583-0.634,1.411-0.643,2.481v0.574c0,1.094,0.212,1.939,0.636,2.536c0.428,0.597,1.021,0.896,1.777,0.896
	c0.766,0,1.354-0.291,1.764-0.875c0.415-0.584,0.622-1.436,0.622-2.557V79.764z M217.72,85h-1.73l-4.436-7.062V85h-1.73v-9.953h1.73
	l4.45,7.089v-7.089h1.716V85z M224.966,82.437c0-0.438-0.155-0.774-0.465-1.012c-0.305-0.237-0.859-0.476-1.661-0.718
	c-0.802-0.242-1.44-0.51-1.914-0.807c-0.907-0.57-1.361-1.313-1.361-2.229c0-0.803,0.326-1.463,0.978-1.982
	c0.656-0.52,1.506-0.779,2.55-0.779c0.692,0,1.31,0.127,1.852,0.383c0.543,0.256,0.969,0.619,1.279,1.094
	c0.31,0.469,0.464,0.991,0.464,1.565h-1.722c0-0.52-0.164-0.925-0.492-1.217c-0.324-0.296-0.789-0.444-1.395-0.444
	c-0.565,0-1.005,0.121-1.319,0.362c-0.31,0.241-0.465,0.579-0.465,1.012c0,0.364,0.169,0.67,0.506,0.916
	c0.337,0.241,0.893,0.479,1.668,0.711c0.774,0.228,1.397,0.489,1.866,0.786c0.469,0.291,0.813,0.629,1.032,1.012
	c0.219,0.379,0.328,0.822,0.328,1.333c0,0.829-0.319,1.49-0.957,1.982c-0.633,0.487-1.495,0.731-2.584,0.731
	c-0.72,0-1.383-0.133-1.989-0.396c-0.602-0.27-1.071-0.639-1.408-1.107c-0.333-0.469-0.499-1.016-0.499-1.641h1.729
	c0,0.564,0.187,1.002,0.561,1.313s0.909,0.465,1.606,0.465c0.602,0,1.053-0.121,1.354-0.362
	C224.813,83.161,224.966,82.838,224.966,82.437z M235.493,75.047v6.651c0,1.058-0.339,1.896-1.018,2.516
	c-0.675,0.615-1.575,0.923-2.701,0.923c-1.139,0-2.044-0.303-2.713-0.909c-0.67-0.61-1.005-1.456-1.005-2.536v-6.645h1.722v6.658
	c0,0.666,0.169,1.174,0.506,1.524s0.834,0.526,1.49,0.526c1.331,0,1.997-0.701,1.997-2.105v-6.604H235.493z M239.075,83.619h4.519
	V85h-6.248v-9.953h1.729V83.619z M250.737,80.557h-4.088v3.063h4.779V85h-6.508v-9.953h6.46v1.395h-4.731v2.748h4.088V80.557z
	 M260.731,85h-1.729l-4.437-7.062V85h-1.729v-9.953h1.729l4.451,7.089v-7.089h1.715V85z M264.402,83.619h5.319V85h-7.41v-1.121
	l5.147-7.438h-5.113v-1.395h7.212v1.094L264.402,83.619z M276.878,82.683h-3.856L272.216,85h-1.798l3.76-9.953h1.551L279.496,85
	h-1.805L276.878,82.683z M273.508,81.288h2.885l-1.443-4.129L273.508,81.288z M289.853,80.782h-4.006V85h-1.73v-9.953h6.323v1.395
	h-4.593v2.96h4.006V80.782z M293.64,85h-1.723v-9.953h1.723V85z M300.968,82.437c0-0.438-0.155-0.774-0.465-1.012
	c-0.305-0.237-0.859-0.476-1.661-0.718c-0.802-0.242-1.44-0.51-1.914-0.807c-0.907-0.57-1.361-1.313-1.361-2.229
	c0-0.803,0.326-1.463,0.978-1.982c0.656-0.52,1.506-0.779,2.55-0.779c0.692,0,1.31,0.127,1.852,0.383
	c0.543,0.256,0.969,0.619,1.279,1.094c0.309,0.469,0.464,0.991,0.464,1.565h-1.722c0-0.52-0.164-0.925-0.492-1.217
	c-0.324-0.296-0.789-0.444-1.395-0.444c-0.565,0-1.005,0.121-1.319,0.362c-0.31,0.241-0.465,0.579-0.465,1.012
	c0,0.364,0.168,0.67,0.506,0.916c0.337,0.241,0.893,0.479,1.668,0.711c0.774,0.228,1.397,0.489,1.866,0.786
	c0.469,0.291,0.813,0.629,1.032,1.012c0.219,0.379,0.328,0.822,0.328,1.333c0,0.829-0.319,1.49-0.957,1.982
	c-0.633,0.487-1.495,0.731-2.584,0.731c-0.72,0-1.383-0.133-1.989-0.396c-0.602-0.27-1.071-0.639-1.408-1.107
	c-0.333-0.469-0.499-1.016-0.499-1.641h1.729c0,0.564,0.187,1.002,0.561,1.313s0.909,0.465,1.606,0.465
	c0.602,0,1.053-0.121,1.354-0.362C300.815,83.161,300.968,82.838,300.968,82.437z M311.81,81.76
	c-0.101,1.063-0.493,1.891-1.176,2.488c-0.684,0.592-1.593,0.889-2.728,0.889c-0.793,0-1.492-0.188-2.098-0.561
	c-0.602-0.379-1.067-0.914-1.395-1.606s-0.499-1.497-0.513-2.413v-0.93c0-0.939,0.167-1.766,0.499-2.481
	c0.333-0.716,0.809-1.267,1.429-1.654c0.624-0.388,1.345-0.581,2.16-0.581c1.099,0,1.983,0.299,2.653,0.896s1.059,1.44,1.169,2.529
	h-1.723c-0.082-0.716-0.292-1.23-0.629-1.545c-0.333-0.319-0.823-0.479-1.47-0.479c-0.752,0-1.33,0.276-1.736,0.827
	c-0.401,0.547-0.606,1.352-0.615,2.413v0.882c0,1.076,0.191,1.896,0.574,2.461c0.387,0.564,0.952,0.848,1.695,0.848
	c0.679,0,1.19-0.152,1.532-0.458c0.341-0.306,0.558-0.813,0.649-1.524H311.81z M318.933,82.683h-3.856L314.271,85h-1.798
	l3.759-9.953h1.552L321.551,85h-1.805L318.933,82.683z M315.562,81.288h2.885l-1.442-4.129L315.562,81.288z M324.415,83.619h4.519
	V85h-6.248v-9.953h1.729V83.619z M336.077,80.557h-4.088v3.063h4.779V85h-6.508v-9.953h6.46v1.395h-4.731v2.748h4.088V80.557z"/>
<path d="M353,78l5,5l5-5H353z"/>
<path d="M410.606,81.76c-0.101,1.063-0.492,1.891-1.176,2.488c-0.684,0.592-1.593,0.889-2.728,0.889c-0.793,0-1.492-0.188-2.1-0.561
	c-0.601-0.379-1.065-0.914-1.394-1.606s-0.499-1.497-0.513-2.413v-0.93c0-0.939,0.167-1.766,0.499-2.481
	c0.333-0.716,0.809-1.267,1.429-1.654c0.624-0.388,1.344-0.581,2.16-0.581c1.098,0,1.982,0.299,2.652,0.896s1.06,1.44,1.169,2.529
	h-1.723c-0.082-0.716-0.292-1.23-0.629-1.545c-0.333-0.319-0.823-0.479-1.47-0.479c-0.752,0-1.331,0.276-1.736,0.827
	c-0.4,0.547-0.605,1.352-0.615,2.413v0.882c0,1.076,0.191,1.896,0.574,2.461c0.387,0.564,0.952,0.848,1.695,0.848
	c0.679,0,1.189-0.152,1.531-0.458s0.559-0.813,0.649-1.524H410.606z M420.102,80.283c0,0.975-0.169,1.832-0.506,2.57
	c-0.338,0.734-0.82,1.299-1.449,1.695c-0.624,0.393-1.345,0.588-2.16,0.588c-0.807,0-1.526-0.195-2.16-0.588
	c-0.629-0.396-1.116-0.959-1.463-1.688c-0.342-0.729-0.516-1.569-0.52-2.522v-0.561c0-0.971,0.171-1.828,0.513-2.57
	c0.347-0.742,0.831-1.311,1.456-1.702c0.629-0.396,1.349-0.595,2.16-0.595s1.529,0.195,2.153,0.588
	c0.629,0.387,1.114,0.947,1.456,1.682c0.342,0.729,0.515,1.579,0.52,2.55V80.283z M418.372,79.764c0-1.104-0.21-1.948-0.629-2.536
	c-0.415-0.588-1.005-0.882-1.771-0.882c-0.748,0-1.333,0.294-1.757,0.882c-0.419,0.583-0.634,1.411-0.643,2.481v0.574
	c0,1.094,0.212,1.939,0.636,2.536c0.428,0.597,1.021,0.896,1.777,0.896c0.766,0,1.354-0.291,1.764-0.875
	c0.415-0.584,0.622-1.436,0.622-2.557V79.764z M429.72,85h-1.729l-4.437-7.062V85h-1.729v-9.953h1.729l4.45,7.089v-7.089h1.716V85z
	 M436.966,82.437c0-0.438-0.155-0.774-0.465-1.012c-0.305-0.237-0.859-0.476-1.661-0.718s-1.439-0.51-1.914-0.807
	c-0.906-0.57-1.36-1.313-1.36-2.229c0-0.803,0.325-1.463,0.978-1.982c0.656-0.52,1.506-0.779,2.55-0.779
	c0.692,0,1.311,0.127,1.853,0.383c0.543,0.256,0.969,0.619,1.278,1.094c0.311,0.469,0.464,0.991,0.464,1.565h-1.722
	c0-0.52-0.164-0.925-0.492-1.217c-0.323-0.296-0.789-0.444-1.395-0.444c-0.565,0-1.005,0.121-1.319,0.362
	c-0.31,0.241-0.465,0.579-0.465,1.012c0,0.364,0.169,0.67,0.506,0.916c0.337,0.241,0.894,0.479,1.668,0.711
	c0.774,0.228,1.397,0.489,1.866,0.786c0.469,0.291,0.813,0.629,1.032,1.012c0.219,0.379,0.328,0.822,0.328,1.333
	c0,0.829-0.319,1.49-0.957,1.982c-0.633,0.487-1.495,0.731-2.584,0.731c-0.721,0-1.383-0.133-1.989-0.396
	c-0.603-0.27-1.071-0.639-1.408-1.107c-0.333-0.469-0.499-1.016-0.499-1.641h1.729c0,0.564,0.187,1.002,0.561,1.313
	s0.909,0.465,1.606,0.465c0.602,0,1.053-0.121,1.354-0.362C436.813,83.161,436.966,82.838,436.966,82.437z M447.493,75.047v6.651
	c0,1.058-0.339,1.896-1.019,2.516c-0.675,0.615-1.574,0.923-2.7,0.923c-1.14,0-2.044-0.303-2.714-0.909
	c-0.67-0.61-1.005-1.456-1.005-2.536v-6.645h1.723v6.658c0,0.666,0.169,1.174,0.506,1.524s0.834,0.526,1.49,0.526
	c1.331,0,1.997-0.701,1.997-2.105v-6.604H447.493z M451.075,83.619h4.519V85h-6.248v-9.953h1.729V83.619z M462.737,80.557h-4.088
	v3.063h4.778V85h-6.508v-9.953h6.46v1.395h-4.73v2.748h4.088V80.557z M472.73,85h-1.729l-4.437-7.062V85h-1.729v-9.953h1.729
	l4.45,7.089v-7.089h1.715V85z M476.402,83.619h5.318V85h-7.41v-1.121l5.147-7.438h-5.113v-1.395h7.212v1.094L476.402,83.619z
	 M488.878,82.683h-3.856L484.216,85h-1.798l3.76-9.953h1.551L491.496,85h-1.805L488.878,82.683z M485.508,81.288h2.885l-1.442-4.129
	L485.508,81.288z M501.688,82.683h-3.854L497.026,85h-1.798l3.76-9.953h1.552L504.307,85h-1.805L501.688,82.683z M498.318,81.288
	h2.885l-1.442-4.129L498.318,81.288z M507.068,83.619h5.318V85h-7.41v-1.121l5.147-7.438h-5.113v-1.395h7.212v1.094L507.068,83.619z
	 M515.702,85h-1.724v-9.953h1.724V85z M523.646,80.557h-4.089v3.063h4.778V85h-6.508v-9.953h6.46v1.395h-4.73v2.748h4.089V80.557z
	 M533.64,85h-1.729l-4.437-7.062V85h-1.729v-9.953h1.729l4.45,7.089v-7.089h1.716V85z M535.684,85v-9.953h2.939
	c0.88,0,1.659,0.195,2.338,0.588c0.684,0.393,1.212,0.947,1.586,1.668s0.561,1.545,0.561,2.475v0.499
	c0,0.943-0.189,1.772-0.567,2.488c-0.374,0.716-0.909,1.267-1.606,1.654c-0.692,0.388-1.487,0.581-2.386,0.581H535.684z
	 M537.413,76.441v7.178h1.128c0.907,0,1.602-0.283,2.085-0.848c0.488-0.57,0.736-1.385,0.745-2.447v-0.554
	c0-1.08-0.235-1.905-0.704-2.475s-1.151-0.854-2.044-0.854H537.413z M550.251,82.683h-3.854L545.589,85h-1.798l3.76-9.953h1.553
	L552.869,85h-1.805L550.251,82.683z M546.881,81.288h2.885l-1.442-4.129L546.881,81.288z M555.733,83.619h4.519V85h-6.248v-9.953
	h1.729V83.619z M567.396,80.557h-4.089v3.063h4.778V85h-6.508v-9.953h6.46v1.395h-4.73v2.748h4.089V80.557z"/>
<path d="M584,78l5,5l5-5H584z"/>
<path d="M641.606,81.76c-0.101,1.063-0.492,1.891-1.176,2.488c-0.684,0.592-1.593,0.889-2.728,0.889c-0.793,0-1.492-0.188-2.1-0.561
	c-0.601-0.379-1.065-0.914-1.394-1.606s-0.499-1.497-0.513-2.413v-0.93c0-0.939,0.167-1.766,0.499-2.481
	c0.333-0.716,0.809-1.267,1.429-1.654c0.624-0.388,1.344-0.581,2.16-0.581c1.098,0,1.982,0.299,2.652,0.896s1.06,1.44,1.169,2.529
	h-1.723c-0.082-0.716-0.292-1.23-0.629-1.545c-0.333-0.319-0.823-0.479-1.47-0.479c-0.752,0-1.331,0.276-1.736,0.827
	c-0.4,0.547-0.605,1.352-0.615,2.413v0.882c0,1.076,0.191,1.896,0.574,2.461c0.387,0.564,0.952,0.848,1.695,0.848
	c0.679,0,1.189-0.152,1.531-0.458s0.559-0.813,0.649-1.524H641.606z M651.102,80.283c0,0.975-0.169,1.832-0.506,2.57
	c-0.338,0.734-0.82,1.299-1.449,1.695c-0.625,0.393-1.345,0.588-2.16,0.588c-0.807,0-1.526-0.195-2.16-0.588
	c-0.629-0.396-1.116-0.959-1.463-1.688c-0.342-0.729-0.516-1.569-0.52-2.522v-0.561c0-0.971,0.171-1.828,0.513-2.57
	c0.347-0.742,0.831-1.311,1.456-1.702c0.629-0.396,1.349-0.595,2.16-0.595s1.529,0.195,2.153,0.588
	c0.629,0.387,1.114,0.947,1.456,1.682c0.342,0.729,0.515,1.579,0.52,2.55V80.283z M649.372,79.764c0-1.104-0.21-1.948-0.629-2.536
	c-0.415-0.588-1.005-0.882-1.771-0.882c-0.748,0-1.333,0.294-1.757,0.882c-0.419,0.583-0.634,1.411-0.643,2.481v0.574
	c0,1.094,0.212,1.939,0.636,2.536c0.428,0.597,1.021,0.896,1.777,0.896c0.766,0,1.354-0.291,1.764-0.875
	c0.415-0.584,0.622-1.436,0.622-2.557V79.764z M660.72,85h-1.729l-4.437-7.062V85h-1.729v-9.953h1.729l4.45,7.089v-7.089h1.716V85z
	 M667.966,82.437c0-0.438-0.155-0.774-0.465-1.012c-0.305-0.237-0.859-0.476-1.661-0.718s-1.439-0.51-1.914-0.807
	c-0.907-0.57-1.36-1.313-1.36-2.229c0-0.803,0.325-1.463,0.978-1.982c0.656-0.52,1.506-0.779,2.55-0.779
	c0.692,0,1.311,0.127,1.853,0.383c0.543,0.256,0.969,0.619,1.278,1.094c0.311,0.469,0.464,0.991,0.464,1.565h-1.722
	c0-0.52-0.164-0.925-0.492-1.217c-0.323-0.296-0.789-0.444-1.395-0.444c-0.565,0-1.005,0.121-1.319,0.362
	c-0.31,0.241-0.465,0.579-0.465,1.012c0,0.364,0.169,0.67,0.506,0.916c0.337,0.241,0.894,0.479,1.668,0.711
	c0.774,0.228,1.397,0.489,1.866,0.786c0.469,0.291,0.813,0.629,1.032,1.012c0.219,0.379,0.328,0.822,0.328,1.333
	c0,0.829-0.319,1.49-0.957,1.982c-0.633,0.487-1.495,0.731-2.584,0.731c-0.721,0-1.383-0.133-1.989-0.396
	c-0.603-0.27-1.071-0.639-1.408-1.107c-0.333-0.469-0.499-1.016-0.499-1.641h1.729c0,0.564,0.187,1.002,0.561,1.313
	s0.909,0.465,1.606,0.465c0.602,0,1.053-0.121,1.354-0.362C667.813,83.161,667.966,82.838,667.966,82.437z M678.493,75.047v6.651
	c0,1.058-0.339,1.896-1.019,2.516c-0.675,0.615-1.574,0.923-2.7,0.923c-1.14,0-2.044-0.303-2.714-0.909
	c-0.67-0.61-1.005-1.456-1.005-2.536v-6.645h1.723v6.658c0,0.666,0.169,1.174,0.506,1.524s0.834,0.526,1.49,0.526
	c1.331,0,1.997-0.701,1.997-2.105v-6.604H678.493z M682.075,83.619h4.519V85h-6.248v-9.953h1.729V83.619z M693.737,80.557h-4.088
	v3.063h4.778V85h-6.508v-9.953h6.46v1.395h-4.73v2.748h4.088V80.557z M703.731,85h-1.729l-4.437-7.062V85h-1.729v-9.953h1.729
	l4.45,7.089v-7.089h1.716V85z M707.402,83.619h5.318V85h-7.41v-1.121l5.147-7.438h-5.113v-1.395h7.212v1.094L707.402,83.619z
	 M719.878,82.683h-3.856L715.216,85h-1.798l3.76-9.953h1.551L722.496,85h-1.805L719.878,82.683z M716.508,81.288h2.885l-1.442-4.129
	L716.508,81.288z M728.942,85h-1.723v-9.953h1.723V85z M733.311,75.047l2.871,7.629l2.864-7.629h2.235V85h-1.723v-3.281l0.17-4.389
	L736.79,85h-1.237l-2.933-7.663l0.171,4.382V85h-1.723v-9.953H733.311z M745.574,75.047l2.871,7.629l2.864-7.629h2.235V85h-1.723
	v-3.281l0.171-4.389L749.054,85h-1.237l-2.933-7.663l0.171,4.382V85h-1.723v-9.953H745.574z M763.539,80.283
	c0,0.975-0.169,1.832-0.506,2.57c-0.337,0.734-0.82,1.299-1.449,1.695c-0.624,0.393-1.344,0.588-2.16,0.588
	c-0.807,0-1.527-0.195-2.16-0.588c-0.629-0.396-1.117-0.959-1.463-1.688c-0.342-0.729-0.515-1.569-0.52-2.522v-0.561
	c0-0.971,0.171-1.828,0.513-2.57c0.346-0.742,0.832-1.311,1.456-1.702c0.629-0.396,1.349-0.595,2.16-0.595
	c0.811,0,1.529,0.195,2.152,0.588c0.63,0.387,1.115,0.947,1.457,1.682c0.342,0.729,0.516,1.579,0.52,2.55V80.283z M761.81,79.764
	c0-1.104-0.21-1.948-0.629-2.536c-0.415-0.588-1.005-0.882-1.771-0.882c-0.747,0-1.333,0.294-1.757,0.882
	c-0.419,0.583-0.634,1.411-0.643,2.481v0.574c0,1.094,0.212,1.939,0.636,2.536c0.429,0.597,1.021,0.896,1.777,0.896
	c0.766,0,1.354-0.291,1.764-0.875c0.414-0.584,0.622-1.436,0.622-2.557V79.764z M765.262,85v-9.953h3.411
	c1.126,0,1.982,0.226,2.57,0.677s0.882,1.124,0.882,2.017c0,0.455-0.123,0.865-0.369,1.23s-0.605,0.646-1.08,0.848
	c0.538,0.146,0.952,0.422,1.244,0.827c0.296,0.401,0.444,0.884,0.444,1.449c0,0.935-0.302,1.651-0.902,2.153
	c-0.597,0.502-1.454,0.752-2.57,0.752H765.262z M766.991,80.509v3.11h1.921c0.542,0,0.966-0.135,1.271-0.403
	s0.458-0.643,0.458-1.121c0-1.034-0.528-1.563-1.586-1.586H766.991z M766.991,79.237h1.696c0.536,0,0.956-0.12,1.257-0.362
	c0.306-0.246,0.458-0.592,0.458-1.039c0-0.492-0.142-0.848-0.424-1.066c-0.277-0.219-0.714-0.328-1.306-0.328h-1.682V79.237z
	 M775.919,85h-1.723v-9.953h1.723V85z M779.774,83.619h4.519V85h-6.248v-9.953h1.729V83.619z M787.444,85h-1.723v-9.953h1.723V85z
	 M795.265,82.683h-3.855L790.604,85h-1.799l3.76-9.953h1.552L797.883,85h-1.805L795.265,82.683z M791.895,81.288h2.885l-1.442-4.129
	L791.895,81.288z M802.675,81.165h-1.928V85h-1.729v-9.953h3.5c1.148,0,2.034,0.258,2.659,0.772
	c0.624,0.515,0.937,1.261,0.937,2.235c0,0.666-0.162,1.224-0.485,1.675c-0.319,0.446-0.766,0.79-1.34,1.032l2.235,4.149V85h-1.853
	L802.675,81.165z M800.747,79.777h1.777c0.584,0,1.038-0.146,1.367-0.438c0.328-0.297,0.492-0.699,0.492-1.21
	c0-0.533-0.152-0.946-0.458-1.237c-0.301-0.291-0.752-0.441-1.354-0.451h-1.825V79.777z M813.571,80.557h-4.088v3.063h4.778V85
	h-6.508v-9.953h6.46v1.395h-4.73v2.748h4.088V80.557z"/>
<path d="M830,78l5,5l5-5H830z"/>
<path d="M887.606,81.76c-0.101,1.063-0.492,1.891-1.176,2.488c-0.684,0.592-1.593,0.889-2.728,0.889c-0.793,0-1.492-0.188-2.1-0.561
	c-0.601-0.379-1.065-0.914-1.394-1.606s-0.499-1.497-0.513-2.413v-0.93c0-0.939,0.167-1.766,0.499-2.481
	c0.333-0.716,0.809-1.267,1.429-1.654c0.624-0.388,1.344-0.581,2.16-0.581c1.098,0,1.982,0.299,2.652,0.896s1.06,1.44,1.169,2.529
	h-1.723c-0.082-0.716-0.292-1.23-0.629-1.545c-0.333-0.319-0.823-0.479-1.47-0.479c-0.752,0-1.331,0.276-1.736,0.827
	c-0.4,0.547-0.605,1.352-0.615,2.413v0.882c0,1.076,0.191,1.896,0.574,2.461c0.387,0.564,0.952,0.848,1.695,0.848
	c0.679,0,1.189-0.152,1.531-0.458s0.559-0.813,0.649-1.524H887.606z M897.102,80.283c0,0.975-0.169,1.832-0.506,2.57
	c-0.338,0.734-0.82,1.299-1.449,1.695c-0.625,0.393-1.345,0.588-2.16,0.588c-0.807,0-1.526-0.195-2.16-0.588
	c-0.629-0.396-1.116-0.959-1.463-1.688c-0.342-0.729-0.516-1.569-0.52-2.522v-0.561c0-0.971,0.171-1.828,0.513-2.57
	c0.347-0.742,0.831-1.311,1.456-1.702c0.629-0.396,1.349-0.595,2.16-0.595s1.529,0.195,2.153,0.588
	c0.629,0.387,1.114,0.947,1.456,1.682c0.342,0.729,0.515,1.579,0.52,2.55V80.283z M895.372,79.764c0-1.104-0.21-1.948-0.629-2.536
	c-0.415-0.588-1.005-0.882-1.771-0.882c-0.748,0-1.333,0.294-1.757,0.882c-0.419,0.583-0.634,1.411-0.643,2.481v0.574
	c0,1.094,0.212,1.939,0.636,2.536c0.428,0.597,1.021,0.896,1.777,0.896c0.766,0,1.354-0.291,1.764-0.875
	c0.415-0.584,0.622-1.436,0.622-2.557V79.764z M906.72,85h-1.729l-4.437-7.062V85h-1.729v-9.953h1.729l4.45,7.089v-7.089h1.716V85z
	 M913.966,82.437c0-0.438-0.155-0.774-0.465-1.012c-0.305-0.237-0.859-0.476-1.661-0.718s-1.439-0.51-1.914-0.807
	c-0.907-0.57-1.36-1.313-1.36-2.229c0-0.803,0.325-1.463,0.978-1.982c0.656-0.52,1.506-0.779,2.55-0.779
	c0.692,0,1.311,0.127,1.853,0.383c0.543,0.256,0.969,0.619,1.278,1.094c0.311,0.469,0.464,0.991,0.464,1.565h-1.722
	c0-0.52-0.164-0.925-0.492-1.217c-0.323-0.296-0.789-0.444-1.395-0.444c-0.565,0-1.005,0.121-1.319,0.362
	c-0.31,0.241-0.465,0.579-0.465,1.012c0,0.364,0.169,0.67,0.506,0.916c0.337,0.241,0.894,0.479,1.668,0.711
	c0.774,0.228,1.397,0.489,1.866,0.786c0.469,0.291,0.813,0.629,1.032,1.012c0.219,0.379,0.328,0.822,0.328,1.333
	c0,0.829-0.319,1.49-0.957,1.982c-0.633,0.487-1.495,0.731-2.584,0.731c-0.721,0-1.383-0.133-1.989-0.396
	c-0.603-0.27-1.071-0.639-1.408-1.107c-0.333-0.469-0.499-1.016-0.499-1.641h1.729c0,0.564,0.187,1.002,0.561,1.313
	s0.909,0.465,1.606,0.465c0.602,0,1.053-0.121,1.354-0.362C913.813,83.161,913.966,82.838,913.966,82.437z M924.493,75.047v6.651
	c0,1.058-0.339,1.896-1.019,2.516c-0.675,0.615-1.574,0.923-2.7,0.923c-1.14,0-2.044-0.303-2.714-0.909
	c-0.67-0.61-1.005-1.456-1.005-2.536v-6.645h1.723v6.658c0,0.666,0.169,1.174,0.506,1.524s0.834,0.526,1.49,0.526
	c1.331,0,1.997-0.701,1.997-2.105v-6.604H924.493z M928.075,83.619h4.519V85h-6.248v-9.953h1.729V83.619z M939.737,80.557h-4.088
	v3.063h4.778V85h-6.508v-9.953h6.46v1.395h-4.73v2.748h4.088V80.557z M949.73,85h-1.729l-4.438-7.062V85h-1.729v-9.953h1.729
	l4.451,7.089v-7.089h1.715V85z M953.402,83.619h5.318V85h-7.41v-1.121l5.147-7.438h-5.113v-1.395h7.212v1.094L953.402,83.619z
	 M965.878,82.683h-3.856L961.216,85h-1.798l3.76-9.953h1.551L968.496,85h-1.805L965.878,82.683z M962.508,81.288h2.885l-1.442-4.129
	L962.508,81.288z M973.117,85v-9.953h2.939c0.879,0,1.658,0.195,2.338,0.588c0.684,0.393,1.213,0.947,1.586,1.668
	s0.561,1.545,0.561,2.475v0.499c0,0.943-0.189,1.772-0.567,2.488c-0.374,0.716-0.909,1.267-1.606,1.654
	C977.674,84.807,976.879,85,975.98,85H973.117z M974.847,76.441v7.178h1.128c0.907,0,1.602-0.283,2.086-0.848
	c0.486-0.57,0.735-1.385,0.744-2.447v-0.554c0-1.08-0.234-1.905-0.703-2.475c-0.471-0.569-1.151-0.854-2.045-0.854H974.847z
	 M984.089,85h-1.723v-9.953h1.723V85z M993.844,83.708c-0.359,0.47-0.858,0.825-1.497,1.066c-0.638,0.241-1.362,0.362-2.174,0.362
	c-0.834,0-1.571-0.189-2.215-0.567s-1.139-0.919-1.49-1.62c-0.347-0.707-0.526-1.529-0.54-2.468v-0.779
	c0-1.504,0.36-2.677,1.08-3.521c0.721-0.848,1.725-1.271,3.014-1.271c1.108,0,1.987,0.273,2.64,0.82
	c0.651,0.547,1.044,1.336,1.176,2.365h-1.694c-0.192-1.199-0.888-1.798-2.086-1.798c-0.774,0-1.364,0.28-1.771,0.841
	c-0.401,0.557-0.608,1.374-0.622,2.454v0.766c0,1.075,0.226,1.911,0.677,2.509c0.456,0.592,1.087,0.889,1.894,0.889
	c0.884,0,1.513-0.201,1.887-0.602v-1.948h-2.051v-1.313h3.773V83.708z M997.569,85h-1.723v-9.953h1.723V85z M1006.68,76.441h-3.1V85
	h-1.72v-8.559h-3.074v-1.395h7.894V76.441z M1012.75,82.683h-3.86L1008.08,85h-1.79l3.75-9.953h1.56L1015.36,85h-1.8L1012.75,82.683
	z M1009.38,81.288h2.88l-1.439-4.129L1009.38,81.288z M1018.23,83.619h4.52V85h-6.25v-9.953h1.73V83.619z M1029.89,80.557h-4.09
	v3.063h4.78V85h-6.51v-9.953h6.46v1.395h-4.73v2.748h4.09V80.557z"/>
<path d="M1046,78l5,5l5-5H1046z"/>
<rect x="1095" y="72" fill="#C4C4C4" width="1" height="16"/>
<path d="M1143.5,82h-0.79l-0.28-0.27c1.2-1.4,1.82-3.311,1.48-5.34c-0.471-2.781-2.79-5-5.59-5.341
	c-4.23-0.52-7.79,3.04-7.271,7.271c0.34,2.8,2.561,5.119,5.34,5.59c2.03,0.34,3.94-0.28,5.341-1.48l0.27,0.28v0.79l4.25,4.25
	c0.41,0.41,1.08,0.41,1.49,0s0.41-1.08,0-1.49L1143.5,82z M1137.5,82c-2.49,0-4.5-2.01-4.5-4.5s2.01-4.5,4.5-4.5s4.5,2.01,4.5,4.5
	S1139.99,82,1137.5,82z"/>
</svg>
